<mxfile host="app.diagrams.net" agent="Mozilla/5.0 (Windows NT 10.0; Win64; x64) AppleWebKit/537.36 (KHTML, like Gecko) Chrome/140.0.0.0 Safari/537.36" version="28.2.5">
  <diagram name="Page-1" id="wzdYmaSANyBIwJRAk64-">
    <mxGraphModel dx="976" dy="361" grid="1" gridSize="10" guides="1" tooltips="1" connect="1" arrows="1" fold="1" page="1" pageScale="1" pageWidth="850" pageHeight="1100" math="0" shadow="0">
      <root>
        <mxCell id="0" />
        <mxCell id="1" parent="0" />
        <mxCell id="9soJT8mT1mYBmQvVk3uF-15" value="Player" style="swimlane;fontStyle=1;align=center;verticalAlign=top;childLayout=stackLayout;horizontal=1;startSize=26;horizontalStack=0;resizeParent=1;resizeParentMax=0;resizeLast=0;collapsible=1;marginBottom=0;whiteSpace=wrap;html=1;" parent="1" vertex="1">
          <mxGeometry x="160" y="160" width="380" height="300" as="geometry">
            <mxRectangle x="160" y="160" width="100" height="30" as="alternateBounds" />
          </mxGeometry>
        </mxCell>
        <mxCell id="9soJT8mT1mYBmQvVk3uF-16" value="-x: double&lt;div&gt;-y: double&lt;/div&gt;&lt;div&gt;-speed: double&lt;/div&gt;&lt;div&gt;-health: int&lt;/div&gt;&lt;div&gt;-keys: Set&amp;lt;integer&amp;gt;&lt;/div&gt;" style="text;strokeColor=none;fillColor=none;align=left;verticalAlign=top;spacingLeft=4;spacingRight=4;overflow=hidden;rotatable=0;points=[[0,0.5],[1,0.5]];portConstraint=eastwest;whiteSpace=wrap;html=1;" parent="9soJT8mT1mYBmQvVk3uF-15" vertex="1">
          <mxGeometry y="26" width="380" height="74" as="geometry" />
        </mxCell>
        <mxCell id="9soJT8mT1mYBmQvVk3uF-17" value="" style="line;strokeWidth=1;fillColor=none;align=left;verticalAlign=middle;spacingTop=-1;spacingLeft=3;spacingRight=3;rotatable=0;labelPosition=right;points=[];portConstraint=eastwest;strokeColor=inherit;" parent="9soJT8mT1mYBmQvVk3uF-15" vertex="1">
          <mxGeometry y="100" width="380" height="20" as="geometry" />
        </mxCell>
        <mxCell id="9soJT8mT1mYBmQvVk3uF-18" value="+Player(startX: double, startY: double)&lt;div&gt;+ keyPressed(keyCode: int) : void&lt;/div&gt;&lt;div&gt;+ keyReleased(keyCode: int): void&lt;/div&gt;&lt;div&gt;+update(): void&lt;/div&gt;&lt;div&gt;+ applyCamera(): void&lt;/div&gt;&lt;div&gt;+damage(amount: int) : void&lt;/div&gt;&lt;div&gt;+heal(amount: int): void&lt;/div&gt;&lt;div&gt;+isAlive(): boolean&lt;/div&gt;&lt;div&gt;+getHealth(): int&lt;/div&gt;&lt;div&gt;+getX(): double&lt;/div&gt;&lt;div&gt;getY(): double&lt;/div&gt;&lt;div&gt;draw(g: Graphics2D): void&lt;/div&gt;&lt;div&gt;&lt;br&gt;&lt;/div&gt;" style="text;strokeColor=none;fillColor=none;align=left;verticalAlign=top;spacingLeft=4;spacingRight=4;overflow=hidden;rotatable=0;points=[[0,0.5],[1,0.5]];portConstraint=eastwest;whiteSpace=wrap;html=1;" parent="9soJT8mT1mYBmQvVk3uF-15" vertex="1">
          <mxGeometry y="120" width="380" height="180" as="geometry" />
        </mxCell>
      </root>
    </mxGraphModel>
  </diagram>
</mxfile>
